# xmcd
# 
# Track frame offsets:
#     150
#     27847
#     50530
#     72430
#     94637
#     120862
#     145355
#     177347
#     206910
# 
# Disc length: 3181
# 
# Revision: 1
# Processed by: cddbd v1.5.2PL0 Copyright (c) Steve Scherf et al.
# Submitted via: fre:ac v1.0.17
# 
DISCID=7e0c6b09
DTITLE=Various Artist - Art of the Duo vol. 1
DYEAR=1993
DGENRE=Jazz
TTITLE0=Dollar Brand and Johnny Dyani - Ntsikana's Bell
TTITLE1=Albert Mangelsdorff and LeeKkonitz - Inclination
TTITLE2=Joe Henderson and Wayne Darling - Mediterranean Sun
TTITLE3=Maria Joao and Aki Takase - Estraha Froma De Vida
TTITLE4=John Tchicai and Vitold Rek - Illingen
TTITLE5=Jim Pepper and Kirk Lightsey - Witchi Tia To
TTITLE6=Nana Simopoulos and Nana Vasconcelos - Time To Re
TTITLE7=Joe Lovano and Ed Blackwell - This One 's For Lacy
TTITLE8=Karin Krog and Arild Andersen - Round Midnight
EXTD=YEAR: 1993
EXTT0=
EXTT1=
EXTT2=
EXTT3=
EXTT4=
EXTT5=
EXTT6=
EXTT7=
EXTT8=
PLAYORDER=
